<svg id="Capa_1" enable-background="new 0 0 512 512" height="512" viewBox="0 0 512 512" width="512" xmlns="http://www.w3.org/2000/svg"><g><g><path d="m167 60h-15c-16.569 0-30-13.431-30-30 0-16.569 13.432-30 30-30h15c46.568 0 91.751 9.123 134.294 27.118 41.084 17.377 77.979 42.251 109.658 73.93s56.553 68.574 73.93 109.658c17.995 42.543 27.118 87.726 27.118 134.294v15c0 16.569-13.431 30-30 30-16.569 0-30-13.432-30-30v-15c0-76.126-29.645-147.696-83.474-201.525s-125.399-83.475-201.526-83.475z"/></g><g><path d="m279.975 317.025c0 8.271 6.729 15 15 15s15-6.729 15-15v-15h-30z"/><path d="m294.975 242.025c-19.556 0-36.239 12.539-42.43 30h84.859c-6.19-17.461-22.873-30-42.429-30z"/><path d="m64.982 382.018c30.327 0 55-24.673 55-55 0-29.422-23.223-53.519-52.3-54.932l-35.656 98.935c9.191 6.902 20.604 10.997 32.956 10.997z"/><path d="m214.982 392.018c-19.299 0-35 15.701-35 35 0 13.97 8.23 26.05 20.094 31.658l46.581-16.788c2.129-4.516 3.325-9.555 3.325-14.87 0-19.299-15.701-35-35-35z"/><circle cx="204.982" cy="177.018" r="15"/><path d="m149.982 427.018c0-35.841 29.159-65 65-65s65 29.159 65 65c0 .968-.031 1.929-.073 2.886l144.766-52.174c-1.737-5.606-2.675-11.56-2.675-17.73v-15c0-68.113-26.524-132.149-74.687-180.312-48.164-48.164-112.199-74.688-180.313-74.688h-15c-6.17 0-12.124-.938-17.73-2.676l-56.121 155.718c40.638 6.347 71.833 41.585 71.833 83.976 0 46.869-38.131 85-85 85-15.855 0-30.702-4.376-43.42-11.965l-18.73 51.969c-6.067 16.835-2.233 34.896 10.008 47.137.001.001 0 0 0 0 12.24 12.239 30.303 16.075 47.137 10.008l106.869-38.516c-10.473-11.542-16.864-26.855-16.864-43.633zm35-95c-8.284 0-15-6.716-15-15s6.716-15 15-15 15 6.716 15 15-6.715 15-15 15zm184.993-44.993c0 8.284-6.716 15-15 15h-15v15c0 24.813-20.187 45-45 45s-45-20.187-45-45v-15h-15c-8.284 0-15-6.716-15-15 0-41.355 33.645-75 75-75s75 33.645 75 75zm-196.812-141.827c17.545-17.545 46.094-17.545 63.64 0 17.545 17.545 17.545 46.094 0 63.64-17.545 17.545-46.094 17.545-63.64 0s-17.546-46.094 0-63.64z"/></g></g></svg>