<svg width="515" height="515" viewBox="0 0 515 515" fill="none" xmlns="http://www.w3.org/2000/svg">
<path d="M167.266 61.5399L152.266 61.6069C135.698 61.6809 122.207 48.31 122.133 31.7412C122.059 15.1723 135.431 1.68148 151.998 1.6075L166.998 1.54052C213.566 1.33258 258.789 10.2537 301.412 28.0586C342.573 45.252 379.579 69.961 411.399 101.498C443.219 133.035 468.258 169.819 485.818 210.825C504.003 253.287 513.327 298.429 513.535 344.997L513.602 359.996C513.676 376.565 500.306 390.056 483.737 390.13C467.168 390.204 453.677 376.832 453.603 360.264L453.536 345.264C453.196 269.139 423.232 197.702 369.163 144.114C315.094 90.5261 243.392 61.2 167.266 61.5399Z" fill="#FF4800"/>
<path d="M281.388 318.058C281.425 326.329 288.184 333.028 296.455 332.991C304.726 332.954 311.424 326.195 311.388 317.924L311.321 302.924L281.321 303.058L281.388 318.058Z" fill="#FF4800"/>
<path d="M296.053 242.992C276.497 243.079 259.87 255.692 253.757 273.181L338.615 272.802C332.347 255.369 315.609 242.904 296.053 242.992V242.992Z" fill="#FF4800"/>
<path d="M66.6872 384.01C97.0139 383.875 121.576 359.092 121.441 328.765C121.31 299.344 97.9793 275.35 68.8963 274.067L33.6824 373.161C42.9041 380.021 54.3353 384.065 66.6872 384.01Z" fill="#FF4800"/>
<path d="M216.73 393.34C197.432 393.427 181.801 409.197 181.887 428.496C181.949 442.466 190.233 454.509 202.122 460.064L248.628 443.068C250.737 438.543 251.91 433.499 251.886 428.184C251.8 408.885 236.029 393.254 216.73 393.34V393.34Z" fill="#FF4800"/>
<path d="M205.837 193.387C214.122 193.35 220.807 186.604 220.77 178.32C220.733 170.036 213.988 163.35 205.703 163.387C197.419 163.424 190.734 170.17 190.771 178.454C190.808 186.738 197.553 193.424 205.837 193.387Z" fill="#FF4800"/>
<path d="M151.887 428.63C151.727 392.79 180.756 363.501 216.596 363.341C252.437 363.181 281.726 392.209 281.886 428.05C281.89 429.018 281.864 429.979 281.826 430.936L426.357 378.116C424.595 372.518 423.631 366.568 423.603 360.398L423.536 345.398C423.232 277.286 396.422 213.369 348.045 165.422C299.666 117.473 235.514 91.2355 167.4 91.5396L152.4 91.6066C146.23 91.6342 140.272 90.7228 134.659 89.0098L79.2335 244.977C119.899 251.142 151.251 286.241 151.441 328.631C151.65 375.5 113.69 413.801 66.8211 414.01C50.9663 414.081 36.0999 409.771 23.3481 402.239L4.85038 454.291C-1.14139 471.153 2.77322 489.197 15.0688 501.383C15.0698 501.384 15.0688 501.383 15.0688 501.383C27.3633 513.567 45.4432 517.322 62.25 511.18L168.946 472.188C158.421 460.692 151.962 445.408 151.887 428.63V428.63ZM186.463 333.475C178.179 333.512 171.433 326.826 171.396 318.542C171.359 310.258 178.045 303.512 186.329 303.475C194.613 303.438 201.359 310.124 201.396 318.408C201.433 326.692 194.748 333.438 186.463 333.475ZM371.253 287.656C371.29 295.94 364.604 302.686 356.32 302.723L341.32 302.79L341.387 317.79C341.498 342.603 321.401 362.88 296.589 362.99C271.776 363.101 251.499 343.005 251.388 318.192L251.321 303.192L236.321 303.259C228.037 303.296 221.291 296.61 221.254 288.326C221.07 246.972 254.564 213.177 295.919 212.992C337.273 212.807 371.068 246.302 371.253 287.656ZM173.81 146.71C191.276 129.086 219.825 128.959 237.449 146.425C255.072 163.892 255.2 192.441 237.733 210.065C220.267 227.688 191.718 227.815 174.094 210.349C156.47 192.882 156.342 164.334 173.81 146.71Z" fill="#FF4800"/>
</svg>
